<svg xmlns="http://www.w3.org/2000/svg" xmlns:xlink="http://www.w3.org/1999/xlink" width="812" zoomAndPan="magnify" viewBox="0 0 609 102.749999" height="137" preserveAspectRatio="xMidYMid meet" version="1.0"><defs><g/><clipPath id="8d83ea7b10"><path d="M 506.5 13.019531 L 582.816406 13.019531 L 582.816406 89.332031 L 506.5 89.332031 Z M 506.5 13.019531 " clip-rule="nonzero"/></clipPath></defs><g fill="#231f20" fill-opacity="0.4"><g transform="translate(17.49206, 82.89761)"><g><path d="M 28.421875 -19.28125 L 24.015625 -14.375 L 24.015625 0 L 4.734375 0 L 4.734375 -58.1875 L 24.015625 -58.1875 L 24.015625 -37.078125 L 43.140625 -58.1875 L 64.5 -58.1875 L 41.234375 -32.578125 L 65.671875 0 L 42.96875 0 Z M 28.421875 -19.28125 "/></g></g></g><g fill="#231f20" fill-opacity="0.4"><g transform="translate(81.086262, 82.89761)"><g><path d="M 44.390625 -10.140625 L 22.28125 -10.140625 L 18.375 0 L -1.578125 0 L 23.859375 -58.1875 L 43.140625 -58.1875 L 68.578125 0 L 48.296875 0 Z M 38.984375 -24.265625 L 33.328125 -38.90625 L 27.6875 -24.265625 Z M 38.984375 -24.265625 "/></g></g></g><g fill="#231f20" fill-opacity="0.4"><g transform="translate(148.088782, 82.89761)"><g><path d="M 62.09375 -58.1875 L 62.09375 0 L 45.96875 0 L 23.859375 -26.4375 L 23.859375 0 L 4.734375 0 L 4.734375 -58.1875 L 20.859375 -58.1875 L 42.96875 -31.75 L 42.96875 -58.1875 Z M 62.09375 -58.1875 "/></g></g></g><g fill="#231f20" fill-opacity="0.4"><g transform="translate(214.925046, 82.89761)"><g><path d="M 62.09375 -58.1875 L 62.09375 0 L 45.96875 0 L 23.859375 -26.4375 L 23.859375 0 L 4.734375 0 L 4.734375 -58.1875 L 20.859375 -58.1875 L 42.96875 -31.75 L 42.96875 -58.1875 Z M 62.09375 -58.1875 "/></g></g></g><g fill="#231f20" fill-opacity="0.4"><g transform="translate(281.76131, 82.89761)"><g><path d="M 44.390625 -10.140625 L 22.28125 -10.140625 L 18.375 0 L -1.578125 0 L 23.859375 -58.1875 L 43.140625 -58.1875 L 68.578125 0 L 48.296875 0 Z M 38.984375 -24.265625 L 33.328125 -38.90625 L 27.6875 -24.265625 Z M 38.984375 -24.265625 "/></g></g></g><g fill="#231f20" fill-opacity="0.4"><g transform="translate(348.763818, 82.89761)"><g><path d="M 51.28125 -30.421875 C 54.71875 -29.148438 57.378906 -27.296875 59.265625 -24.859375 C 61.148438 -22.421875 62.09375 -19.484375 62.09375 -16.046875 C 62.09375 -10.941406 59.984375 -6.988281 55.765625 -4.1875 C 51.554688 -1.394531 45.460938 0 37.484375 0 L 4.734375 0 L 4.734375 -58.1875 L 35.828125 -58.1875 C 43.585938 -58.1875 49.445312 -56.800781 53.40625 -54.03125 C 57.363281 -51.257812 59.34375 -47.570312 59.34375 -42.96875 C 59.34375 -40.257812 58.664062 -37.820312 57.3125 -35.65625 C 55.957031 -33.5 53.945312 -31.753906 51.28125 -30.421875 Z M 24.015625 -44.46875 L 24.015625 -35.828125 L 33.171875 -35.828125 C 37.429688 -35.828125 39.5625 -37.269531 39.5625 -40.15625 C 39.5625 -43.03125 37.429688 -44.46875 33.171875 -44.46875 Z M 35.828125 -13.71875 C 40.148438 -13.71875 42.3125 -15.238281 42.3125 -18.28125 C 42.3125 -21.332031 40.148438 -22.859375 35.828125 -22.859375 L 24.015625 -22.859375 L 24.015625 -13.71875 Z M 35.828125 -13.71875 "/></g></g></g><g fill="#231f20" fill-opacity="0.4"><g transform="translate(413.023055, 82.89761)"><g><path d="M 4.734375 -58.1875 L 24.359375 -58.1875 L 24.359375 0 L 4.734375 0 Z M 4.734375 -58.1875 "/></g></g></g><g fill="#231f20" fill-opacity="0.4"><g transform="translate(442.118445, 82.89761)"><g><path d="M 26.4375 1.328125 C 21.613281 1.328125 16.914062 0.789062 12.34375 -0.28125 C 7.769531 -1.363281 4.015625 -2.820312 1.078125 -4.65625 L 7.390625 -18.953125 C 10.160156 -17.347656 13.265625 -16.054688 16.703125 -15.078125 C 20.140625 -14.109375 23.4375 -13.625 26.59375 -13.625 C 29.3125 -13.625 31.253906 -13.890625 32.421875 -14.421875 C 33.585938 -14.953125 34.171875 -15.742188 34.171875 -16.796875 C 34.171875 -18.015625 33.40625 -18.925781 31.875 -19.53125 C 30.351562 -20.144531 27.847656 -20.8125 24.359375 -21.53125 C 19.867188 -22.46875 16.125 -23.476562 13.125 -24.5625 C 10.132812 -25.644531 7.53125 -27.414062 5.3125 -29.875 C 3.101562 -32.34375 2 -35.6875 2 -39.90625 C 2 -43.5625 3.019531 -46.882812 5.0625 -49.875 C 7.113281 -52.863281 10.175781 -55.21875 14.25 -56.9375 C 18.320312 -58.65625 23.269531 -59.515625 29.09375 -59.515625 C 33.082031 -59.515625 37.003906 -59.082031 40.859375 -58.21875 C 44.710938 -57.363281 48.101562 -56.109375 51.03125 -54.453125 L 45.140625 -40.234375 C 39.429688 -43.117188 34.023438 -44.5625 28.921875 -44.5625 C 23.878906 -44.5625 21.359375 -43.335938 21.359375 -40.890625 C 21.359375 -39.734375 22.109375 -38.863281 23.609375 -38.28125 C 25.109375 -37.695312 27.570312 -37.070312 31 -36.40625 C 35.4375 -35.570312 39.175781 -34.613281 42.21875 -33.53125 C 45.269531 -32.457031 47.914062 -30.703125 50.15625 -28.265625 C 52.40625 -25.828125 53.53125 -22.5 53.53125 -18.28125 C 53.53125 -14.625 52.503906 -11.3125 50.453125 -8.34375 C 48.398438 -5.382812 45.335938 -3.03125 41.265625 -1.28125 C 37.191406 0.457031 32.25 1.328125 26.4375 1.328125 Z M 26.4375 1.328125 "/></g></g></g><g fill="#4391ea" fill-opacity="1"><g transform="translate(13.817991, 79.22354)"><g><path d="M 28.421875 -19.28125 L 24.015625 -14.375 L 24.015625 0 L 4.734375 0 L 4.734375 -58.1875 L 24.015625 -58.1875 L 24.015625 -37.078125 L 43.140625 -58.1875 L 64.5 -58.1875 L 41.234375 -32.578125 L 65.671875 0 L 42.96875 0 Z M 28.421875 -19.28125 "/></g></g></g><g fill="#4391ea" fill-opacity="1"><g transform="translate(77.412193, 79.22354)"><g><path d="M 44.390625 -10.140625 L 22.28125 -10.140625 L 18.375 0 L -1.578125 0 L 23.859375 -58.1875 L 43.140625 -58.1875 L 68.578125 0 L 48.296875 0 Z M 38.984375 -24.265625 L 33.328125 -38.90625 L 27.6875 -24.265625 Z M 38.984375 -24.265625 "/></g></g></g><g fill="#4391ea" fill-opacity="1"><g transform="translate(144.414712, 79.22354)"><g><path d="M 62.09375 -58.1875 L 62.09375 0 L 45.96875 0 L 23.859375 -26.4375 L 23.859375 0 L 4.734375 0 L 4.734375 -58.1875 L 20.859375 -58.1875 L 42.96875 -31.75 L 42.96875 -58.1875 Z M 62.09375 -58.1875 "/></g></g></g><g fill="#4391ea" fill-opacity="1"><g transform="translate(211.250976, 79.22354)"><g><path d="M 62.09375 -58.1875 L 62.09375 0 L 45.96875 0 L 23.859375 -26.4375 L 23.859375 0 L 4.734375 0 L 4.734375 -58.1875 L 20.859375 -58.1875 L 42.96875 -31.75 L 42.96875 -58.1875 Z M 62.09375 -58.1875 "/></g></g></g><g fill="#4391ea" fill-opacity="1"><g transform="translate(278.08724, 79.22354)"><g><path d="M 44.390625 -10.140625 L 22.28125 -10.140625 L 18.375 0 L -1.578125 0 L 23.859375 -58.1875 L 43.140625 -58.1875 L 68.578125 0 L 48.296875 0 Z M 38.984375 -24.265625 L 33.328125 -38.90625 L 27.6875 -24.265625 Z M 38.984375 -24.265625 "/></g></g></g><g fill="#4391ea" fill-opacity="1"><g transform="translate(345.089749, 79.22354)"><g><path d="M 51.28125 -30.421875 C 54.71875 -29.148438 57.378906 -27.296875 59.265625 -24.859375 C 61.148438 -22.421875 62.09375 -19.484375 62.09375 -16.046875 C 62.09375 -10.941406 59.984375 -6.988281 55.765625 -4.1875 C 51.554688 -1.394531 45.460938 0 37.484375 0 L 4.734375 0 L 4.734375 -58.1875 L 35.828125 -58.1875 C 43.585938 -58.1875 49.445312 -56.800781 53.40625 -54.03125 C 57.363281 -51.257812 59.34375 -47.570312 59.34375 -42.96875 C 59.34375 -40.257812 58.664062 -37.820312 57.3125 -35.65625 C 55.957031 -33.5 53.945312 -31.753906 51.28125 -30.421875 Z M 24.015625 -44.46875 L 24.015625 -35.828125 L 33.171875 -35.828125 C 37.429688 -35.828125 39.5625 -37.269531 39.5625 -40.15625 C 39.5625 -43.03125 37.429688 -44.46875 33.171875 -44.46875 Z M 35.828125 -13.71875 C 40.148438 -13.71875 42.3125 -15.238281 42.3125 -18.28125 C 42.3125 -21.332031 40.148438 -22.859375 35.828125 -22.859375 L 24.015625 -22.859375 L 24.015625 -13.71875 Z M 35.828125 -13.71875 "/></g></g></g><g fill="#4391ea" fill-opacity="1"><g transform="translate(409.348985, 79.22354)"><g><path d="M 4.734375 -58.1875 L 24.359375 -58.1875 L 24.359375 0 L 4.734375 0 Z M 4.734375 -58.1875 "/></g></g></g><g fill="#4391ea" fill-opacity="1"><g transform="translate(438.444376, 79.22354)"><g><path d="M 26.4375 1.328125 C 21.613281 1.328125 16.914062 0.789062 12.34375 -0.28125 C 7.769531 -1.363281 4.015625 -2.820312 1.078125 -4.65625 L 7.390625 -18.953125 C 10.160156 -17.347656 13.265625 -16.054688 16.703125 -15.078125 C 20.140625 -14.109375 23.4375 -13.625 26.59375 -13.625 C 29.3125 -13.625 31.253906 -13.890625 32.421875 -14.421875 C 33.585938 -14.953125 34.171875 -15.742188 34.171875 -16.796875 C 34.171875 -18.015625 33.40625 -18.925781 31.875 -19.53125 C 30.351562 -20.144531 27.847656 -20.8125 24.359375 -21.53125 C 19.867188 -22.46875 16.125 -23.476562 13.125 -24.5625 C 10.132812 -25.644531 7.53125 -27.414062 5.3125 -29.875 C 3.101562 -32.34375 2 -35.6875 2 -39.90625 C 2 -43.5625 3.019531 -46.882812 5.0625 -49.875 C 7.113281 -52.863281 10.175781 -55.21875 14.25 -56.9375 C 18.320312 -58.65625 23.269531 -59.515625 29.09375 -59.515625 C 33.082031 -59.515625 37.003906 -59.082031 40.859375 -58.21875 C 44.710938 -57.363281 48.101562 -56.109375 51.03125 -54.453125 L 45.140625 -40.234375 C 39.429688 -43.117188 34.023438 -44.5625 28.921875 -44.5625 C 23.878906 -44.5625 21.359375 -43.335938 21.359375 -40.890625 C 21.359375 -39.734375 22.109375 -38.863281 23.609375 -38.28125 C 25.109375 -37.695312 27.570312 -37.070312 31 -36.40625 C 35.4375 -35.570312 39.175781 -34.613281 42.21875 -33.53125 C 45.269531 -32.457031 47.914062 -30.703125 50.15625 -28.265625 C 52.40625 -25.828125 53.53125 -22.5 53.53125 -18.28125 C 53.53125 -14.625 52.503906 -11.3125 50.453125 -8.34375 C 48.398438 -5.382812 45.335938 -3.03125 41.265625 -1.28125 C 37.191406 0.457031 32.25 1.328125 26.4375 1.328125 Z M 26.4375 1.328125 "/></g></g></g><g clip-path="url(#8d83ea7b10)"><path fill="#4391ea" d="M 580.835938 13.628906 L 507.695312 49.023438 C 506.601562 49.511719 506.800781 51.296875 508.007812 51.476562 C 508.007812 51.476562 538.753906 57.460938 538.753906 57.460938 L 544.734375 88.207031 C 544.910156 89.390625 546.703125 89.632812 547.191406 88.519531 C 547.191406 88.519531 582.585938 15.378906 582.585938 15.378906 C 583.117188 14.328125 581.90625 13.074219 580.835938 13.628906 Z M 580.835938 13.628906 " fill-opacity="1" fill-rule="nonzero"/></g></svg>