<svg xmlns="http://www.w3.org/2000/svg" xmlns:xlink="http://www.w3.org/1999/xlink" width="137" zoomAndPan="magnify" viewBox="0 0 102.75 102.749999" height="137" preserveAspectRatio="xMidYMid meet" version="1.0"><defs><clipPath id="9672d452ec"><path d="M 0 0 L 102.5 0 L 102.5 102.5 L 0 102.5 Z M 0 0 " clip-rule="nonzero"/></clipPath><clipPath id="037c545948"><path d="M 9.851562 21 L 83.09375 21 L 83.09375 96 L 9.851562 96 Z M 9.851562 21 " clip-rule="nonzero"/></clipPath><clipPath id="9fc0f6dc74"><path d="M 83.046875 47.359375 C 83.121094 70.925781 80.355469 76.988281 76.839844 81.550781 C 73.246094 86.117188 68.007812 90.230469 62.699219 92.625 C 57.460938 95.019531 50.875 96.214844 45.113281 95.84375 C 39.28125 95.46875 32.996094 93.523438 27.980469 90.53125 C 23.042969 87.535156 18.332031 82.824219 15.335938 77.886719 C 12.34375 72.871094 10.398438 66.511719 10.027344 60.753906 C 9.652344 54.992188 10.847656 48.40625 13.242188 43.171875 C 15.636719 37.859375 19.75 32.621094 24.316406 29.03125 C 28.878906 25.511719 34.941406 22.746094 40.625 21.695312 C 46.3125 20.648438 52.972656 21.097656 58.507812 22.820312 C 64.042969 24.539062 73.84375 32.097656 73.84375 32.097656 " clip-rule="nonzero"/></clipPath><clipPath id="e9a150cbd3"><path d="M 25.410156 4 L 98.65625 4 L 98.65625 78.957031 L 25.410156 78.957031 Z M 25.410156 4 " clip-rule="nonzero"/></clipPath><clipPath id="15be19d413"><path d="M 98.609375 30.300781 C 98.683594 53.867188 95.917969 59.929688 92.398438 64.492188 C 88.808594 69.058594 83.570312 73.171875 78.257812 75.566406 C 73.023438 77.960938 66.4375 79.15625 60.675781 78.785156 C 54.839844 78.410156 48.558594 76.464844 43.542969 73.472656 C 38.605469 70.480469 33.890625 65.765625 30.898438 60.828125 C 27.90625 55.8125 25.960938 49.453125 25.585938 43.695312 C 25.214844 37.933594 26.410156 31.347656 28.804688 26.113281 C 31.199219 20.800781 35.3125 15.5625 39.878906 11.972656 C 44.441406 8.453125 50.503906 5.6875 56.1875 4.640625 C 61.875 3.589844 68.535156 4.039062 74.070312 5.761719 C 79.605469 7.480469 89.40625 15.039062 89.40625 15.039062 " clip-rule="nonzero"/></clipPath><clipPath id="3993c2ffb4"><path d="M 22.121094 22.390625 L 95.363281 22.390625 L 95.363281 97.515625 L 22.121094 97.515625 Z M 22.121094 22.390625 " clip-rule="nonzero"/></clipPath><clipPath id="cf947b6483"><path d="M 95.316406 48.855469 C 95.394531 72.421875 92.625 78.484375 89.109375 83.046875 C 85.515625 87.613281 80.28125 91.726562 74.96875 94.121094 C 69.730469 96.515625 63.144531 97.710938 57.386719 97.339844 C 51.550781 96.964844 45.265625 95.019531 40.253906 92.027344 C 35.3125 89.035156 30.601562 84.320312 27.609375 79.382812 C 24.613281 74.367188 22.667969 68.007812 22.296875 62.25 C 21.921875 56.488281 23.117188 49.902344 25.511719 44.667969 C 27.90625 39.355469 32.023438 34.117188 36.585938 30.527344 C 41.148438 27.007812 47.210938 24.242188 52.894531 23.195312 C 58.582031 22.144531 65.242188 22.59375 70.777344 24.316406 C 76.3125 26.035156 86.117188 33.59375 86.117188 33.59375 " clip-rule="nonzero"/></clipPath><clipPath id="578ef83da3"><path d="M 0.574219 24 L 73.816406 24 L 73.816406 99 L 0.574219 99 Z M 0.574219 24 " clip-rule="nonzero"/></clipPath><clipPath id="38bc6f675b"><path d="M 73.769531 50.351562 C 73.84375 73.921875 71.078125 79.980469 67.5625 84.542969 C 63.96875 89.109375 58.730469 93.222656 53.421875 95.617188 C 48.183594 98.011719 41.597656 99.207031 35.835938 98.835938 C 30.003906 98.460938 23.71875 96.515625 18.703125 93.523438 C 13.765625 90.53125 9.054688 85.816406 6.058594 80.878906 C 3.066406 75.867188 1.121094 69.507812 0.75 63.746094 C 0.375 57.984375 1.570312 51.398438 3.964844 46.164062 C 6.359375 40.851562 10.472656 35.613281 15.039062 32.023438 C 19.601562 28.503906 25.664062 25.738281 31.347656 24.691406 C 37.035156 23.640625 43.695312 24.089844 49.230469 25.8125 C 54.765625 27.53125 64.566406 35.089844 64.566406 35.089844 " clip-rule="nonzero"/></clipPath><clipPath id="56d54dbc4d"><path d="M 19 19 L 83.984375 19 L 83.984375 83.984375 L 19 83.984375 Z M 19 19 " clip-rule="nonzero"/></clipPath></defs><path fill="#ffffff" d="M 46.460938 42.347656 L 42.722656 38.605469 L 43.246094 38.082031 C 45.933594 35.621094 48.824219 33.429688 51.921875 31.507812 C 55.019531 29.585938 58.265625 27.964844 61.664062 26.648438 C 65.058594 25.328125 68.550781 24.335938 72.132812 23.667969 C 75.714844 23 79.328125 22.667969 82.972656 22.667969 L 82.972656 17.582031 C 82.972656 17.582031 19.75 18.628906 19.003906 84.246094 L 83.046875 84.246094 L 83.046875 68.457031 C 81.769531 68.457031 80.527344 68.664062 79.320312 69.089844 C 78.113281 69.511719 77.011719 70.125 76.015625 70.925781 C 75.800781 71.058594 75.601562 71.207031 75.417969 71.375 L 71.75 67.710938 C 71.90625 67.515625 72.082031 67.34375 72.273438 67.1875 C 73.777344 65.90625 75.453125 64.925781 77.308594 64.242188 C 79.160156 63.5625 81.074219 63.21875 83.046875 63.222656 L 83.046875 58.65625 C 80.441406 58.675781 77.910156 59.113281 75.449219 59.972656 C 72.988281 60.832031 70.734375 62.0625 68.683594 63.671875 C 68.46875 63.800781 68.269531 63.953125 68.085938 64.117188 L 64.34375 60.378906 C 64.566406 60.226562 64.71875 60.078125 64.941406 59.929688 C 67.492188 57.828125 70.320312 56.21875 73.429688 55.101562 C 76.539062 53.984375 79.746094 53.421875 83.046875 53.421875 L 83.046875 48.632812 C 81.097656 48.628906 79.160156 48.792969 77.242188 49.132812 C 75.320312 49.472656 73.441406 49.976562 71.609375 50.644531 C 69.78125 51.316406 68.019531 52.140625 66.335938 53.121094 C 64.648438 54.105469 63.0625 55.226562 61.574219 56.488281 C 61.351562 56.710938 61.125 56.863281 60.976562 57.011719 L 57.234375 53.269531 C 57.417969 53.074219 57.617188 52.898438 57.835938 52.746094 C 59.570312 51.242188 61.425781 49.902344 63.402344 48.730469 C 65.375 47.554688 67.441406 46.566406 69.59375 45.761719 C 71.746094 44.957031 73.949219 44.351562 76.210938 43.941406 C 78.472656 43.53125 80.75 43.324219 83.046875 43.320312 L 83.046875 38.382812 C 80.425781 38.378906 77.824219 38.613281 75.242188 39.085938 C 72.664062 39.554688 70.144531 40.253906 67.691406 41.179688 C 65.238281 42.105469 62.886719 43.246094 60.640625 44.597656 C 58.390625 45.953125 56.285156 47.496094 54.316406 49.230469 C 54.101562 49.386719 53.902344 49.5625 53.71875 49.753906 L 50.054688 46.011719 C 50.277344 45.789062 50.503906 45.640625 50.652344 45.488281 C 52.863281 43.519531 55.234375 41.765625 57.765625 40.230469 C 60.296875 38.691406 62.949219 37.394531 65.714844 36.339844 C 68.484375 35.285156 71.324219 34.492188 74.234375 33.953125 C 77.148438 33.414062 80.085938 33.144531 83.046875 33.144531 L 83.046875 27.980469 C 79.746094 27.980469 76.472656 28.277344 73.226562 28.878906 C 69.980469 29.480469 66.8125 30.371094 63.730469 31.554688 C 60.648438 32.738281 57.699219 34.191406 54.886719 35.917969 C 52.070312 37.644531 49.4375 39.613281 46.984375 41.824219 Z M 46.460938 42.347656 " fill-opacity="1" fill-rule="nonzero"/><g clip-path="url(#9672d452ec)"><path fill="#4391ea" d="M 95.019531 0 L 7.480469 0 C 6.992188 0 6.503906 0.046875 6.023438 0.144531 C 5.539062 0.238281 5.074219 0.382812 4.617188 0.570312 C 4.164062 0.757812 3.734375 0.988281 3.324219 1.261719 C 2.917969 1.535156 2.539062 1.84375 2.191406 2.191406 C 1.84375 2.539062 1.535156 2.917969 1.261719 3.324219 C 0.988281 3.734375 0.757812 4.164062 0.570312 4.617188 C 0.382812 5.074219 0.238281 5.539062 0.144531 6.023438 C 0.046875 6.503906 0 6.992188 0 7.480469 L 0 95.019531 C 0 95.511719 0.046875 95.996094 0.144531 96.476562 C 0.238281 96.960938 0.382812 97.429688 0.570312 97.882812 C 0.757812 98.335938 0.988281 98.765625 1.261719 99.175781 C 1.535156 99.582031 1.84375 99.960938 2.191406 100.308594 C 2.539062 100.65625 2.917969 100.964844 3.324219 101.238281 C 3.734375 101.511719 4.164062 101.742188 4.617188 101.929688 C 5.074219 102.117188 5.539062 102.261719 6.023438 102.355469 C 6.503906 102.453125 6.992188 102.5 7.480469 102.5 L 95.019531 102.5 C 95.511719 102.5 95.996094 102.453125 96.476562 102.355469 C 96.960938 102.261719 97.429688 102.117188 97.882812 101.929688 C 98.335938 101.742188 98.765625 101.511719 99.175781 101.238281 C 99.582031 100.964844 99.960938 100.65625 100.308594 100.308594 C 100.65625 99.960938 100.964844 99.582031 101.238281 99.175781 C 101.511719 98.765625 101.742188 98.335938 101.929688 97.882812 C 102.117188 97.429688 102.261719 96.960938 102.355469 96.476562 C 102.453125 95.996094 102.5 95.511719 102.5 95.019531 L 102.5 7.480469 C 102.5 6.992188 102.453125 6.503906 102.355469 6.023438 C 102.261719 5.539062 102.117188 5.074219 101.929688 4.617188 C 101.742188 4.164062 101.511719 3.734375 101.238281 3.324219 C 100.964844 2.917969 100.65625 2.539062 100.308594 2.191406 C 99.960938 1.84375 99.582031 1.535156 99.175781 1.261719 C 98.765625 0.988281 98.335938 0.757812 97.882812 0.570312 C 97.429688 0.382812 96.960938 0.238281 96.476562 0.144531 C 95.996094 0.046875 95.511719 0 95.019531 0 Z M 83.046875 33.144531 C 80.085938 33.144531 77.148438 33.414062 74.234375 33.953125 C 71.324219 34.492188 68.484375 35.285156 65.714844 36.339844 C 62.949219 37.394531 60.296875 38.691406 57.765625 40.230469 C 55.234375 41.765625 52.863281 43.519531 50.652344 45.488281 C 50.503906 45.640625 50.277344 45.789062 50.054688 46.011719 L 53.71875 49.753906 C 53.902344 49.5625 54.101562 49.386719 54.316406 49.230469 C 56.285156 47.496094 58.390625 45.953125 60.640625 44.597656 C 62.886719 43.246094 65.238281 42.105469 67.691406 41.179688 C 70.144531 40.253906 72.664062 39.554688 75.242188 39.085938 C 77.824219 38.613281 80.425781 38.378906 83.046875 38.382812 L 83.046875 43.320312 C 80.75 43.324219 78.472656 43.53125 76.210938 43.941406 C 73.949219 44.351562 71.746094 44.957031 69.59375 45.761719 C 67.441406 46.566406 65.375 47.554688 63.402344 48.730469 C 61.425781 49.902344 59.570312 51.242188 57.835938 52.746094 C 57.617188 52.898438 57.417969 53.074219 57.234375 53.269531 L 60.976562 57.011719 C 61.125 56.863281 61.351562 56.710938 61.574219 56.488281 C 63.0625 55.226562 64.648438 54.105469 66.335938 53.121094 C 68.019531 52.140625 69.78125 51.316406 71.609375 50.644531 C 73.441406 49.976562 75.320312 49.472656 77.242188 49.132812 C 79.160156 48.792969 81.097656 48.628906 83.046875 48.632812 L 83.046875 53.421875 C 79.746094 53.421875 76.539062 53.984375 73.429688 55.101562 C 70.320312 56.21875 67.492188 57.828125 64.941406 59.929688 C 64.71875 60.078125 64.566406 60.226562 64.34375 60.378906 L 68.085938 64.117188 C 68.269531 63.953125 68.46875 63.800781 68.683594 63.671875 C 70.734375 62.0625 72.988281 60.832031 75.449219 59.972656 C 77.910156 59.113281 80.441406 58.675781 83.046875 58.65625 L 83.046875 63.222656 C 81.074219 63.21875 79.160156 63.5625 77.308594 64.242188 C 75.453125 64.925781 73.777344 65.90625 72.273438 67.1875 C 72.082031 67.34375 71.90625 67.515625 71.75 67.710938 L 75.417969 71.375 C 75.601562 71.207031 75.800781 71.058594 76.015625 70.925781 C 77.011719 70.125 78.113281 69.511719 79.320312 69.089844 C 80.527344 68.664062 81.769531 68.457031 83.046875 68.457031 L 83.046875 84.246094 L 19.003906 84.246094 C 19.75 18.628906 82.972656 17.582031 82.972656 17.582031 L 82.972656 22.667969 C 79.328125 22.667969 75.714844 23 72.132812 23.667969 C 68.550781 24.335938 65.058594 25.328125 61.664062 26.648438 C 58.265625 27.964844 55.019531 29.585938 51.921875 31.507812 C 48.824219 33.429688 45.933594 35.621094 43.246094 38.082031 L 42.722656 38.605469 L 46.460938 42.347656 L 46.984375 41.824219 C 49.4375 39.613281 52.070312 37.644531 54.886719 35.917969 C 57.699219 34.191406 60.648438 32.738281 63.730469 31.554688 C 66.8125 30.371094 69.980469 29.480469 73.226562 28.878906 C 76.472656 28.277344 79.746094 27.980469 83.046875 27.980469 Z M 83.046875 33.144531 " fill-opacity="1" fill-rule="nonzero"/></g><g clip-path="url(#037c545948)"><g clip-path="url(#9fc0f6dc74)"><path fill="#4391ea" d="M 7.03125 18.703125 L 87.164062 18.703125 L 87.164062 98.835938 L 7.03125 98.835938 Z M 7.03125 18.703125 " fill-opacity="1" fill-rule="nonzero"/></g></g><g clip-path="url(#e9a150cbd3)"><g clip-path="url(#15be19d413)"><path fill="#4391ea" d="M 22.59375 1.644531 L 102.726562 1.644531 L 102.726562 81.777344 L 22.59375 81.777344 Z M 22.59375 1.644531 " fill-opacity="1" fill-rule="nonzero"/></g></g><g clip-path="url(#3993c2ffb4)"><g clip-path="url(#cf947b6483)"><path fill="#4391ea" d="M 19.304688 20.199219 L 99.433594 20.199219 L 99.433594 100.332031 L 19.304688 100.332031 Z M 19.304688 20.199219 " fill-opacity="1" fill-rule="nonzero"/></g></g><g clip-path="url(#578ef83da3)"><g clip-path="url(#38bc6f675b)"><path fill="#4391ea" d="M -2.246094 21.695312 L 77.886719 21.695312 L 77.886719 101.828125 L -2.246094 101.828125 Z M -2.246094 21.695312 " fill-opacity="1" fill-rule="nonzero"/></g></g><g clip-path="url(#56d54dbc4d)"><path fill="#fffffe" d="M 81.816406 19.40625 L 19.902344 49.367188 C 18.976562 49.785156 19.144531 51.292969 20.167969 51.445312 C 20.167969 51.445312 46.191406 56.511719 46.191406 56.511719 L 51.257812 82.535156 C 51.40625 83.539062 52.921875 83.742188 53.335938 82.800781 C 53.335938 82.800781 83.296875 20.886719 83.296875 20.886719 C 83.746094 20.003906 82.71875 18.9375 81.816406 19.40625 Z M 81.816406 19.40625 " fill-opacity="1" fill-rule="nonzero"/></g></svg>